<svg width="34" height="35" viewBox="0 0 34 35" fill="none" xmlns="http://www.w3.org/2000/svg">
<rect y="0.5" width="34" height="34" rx="17" fill="#D4AF37" fill-opacity="0.9"/>
<path d="M9.62 23.62C10.64 22.84 11.78 22.225 13.04 21.775C14.3 21.325 15.62 21.1 17 21.1C18.38 21.1 19.7 21.325 20.96 21.775C22.22 22.225 23.36 22.84 24.38 23.62C25.08 22.8 25.625 21.87 26.015 20.83C26.405 19.79 26.6 18.68 26.6 17.5C26.6 14.84 25.665 12.575 23.795 10.705C21.925 8.835 19.66 7.9 17 7.9C14.34 7.9 12.075 8.835 10.205 10.705C8.335 12.575 7.4 14.84 7.4 17.5C7.4 18.68 7.595 19.79 7.985 20.83C8.375 21.87 8.92 22.8 9.62 23.62ZM17 18.7C15.82 18.7 14.825 18.295 14.015 17.485C13.205 16.675 12.8 15.68 12.8 14.5C12.8 13.32 13.205 12.325 14.015 11.515C14.825 10.705 15.82 10.3 17 10.3C18.18 10.3 19.175 10.705 19.985 11.515C20.795 12.325 21.2 13.32 21.2 14.5C21.2 15.68 20.795 16.675 19.985 17.485C19.175 18.295 18.18 18.7 17 18.7ZM17 29.5C15.34 29.5 13.78 29.185 12.32 28.555C10.86 27.925 9.59 27.07 8.51 25.99C7.43 24.91 6.575 23.64 5.945 22.18C5.315 20.72 5 19.16 5 17.5C5 15.84 5.315 14.28 5.945 12.82C6.575 11.36 7.43 10.09 8.51 9.01C9.59 7.93 10.86 7.075 12.32 6.445C13.78 5.815 15.34 5.5 17 5.5C18.66 5.5 20.22 5.815 21.68 6.445C23.14 7.075 24.41 7.93 25.49 9.01C26.57 10.09 27.425 11.36 28.055 12.82C28.685 14.28 29 15.84 29 17.5C29 19.16 28.685 20.72 28.055 22.18C27.425 23.64 26.57 24.91 25.49 25.99C24.41 27.07 23.14 27.925 21.68 28.555C20.22 29.185 18.66 29.5 17 29.5ZM17 27.1C18.06 27.1 19.06 26.945 20 26.635C20.94 26.325 21.8 25.88 22.58 25.3C21.8 24.72 20.94 24.275 20 23.965C19.06 23.655 18.06 23.5 17 23.5C15.94 23.5 14.94 23.655 14 23.965C13.06 24.275 12.2 24.72 11.42 25.3C12.2 25.88 13.06 26.325 14 26.635C14.94 26.945 15.94 27.1 17 27.1ZM17 16.3C17.52 16.3 17.95 16.13 18.29 15.79C18.63 15.45 18.8 15.02 18.8 14.5C18.8 13.98 18.63 13.55 18.29 13.21C17.95 12.87 17.52 12.7 17 12.7C16.48 12.7 16.05 12.87 15.71 13.21C15.37 13.55 15.2 13.98 15.2 14.5C15.2 15.02 15.37 15.45 15.71 15.79C16.05 16.13 16.48 16.3 17 16.3Z" fill="white"/>
</svg>
