<svg width="18" height="18" viewBox="0 0 18 18" fill="none" xmlns="http://www.w3.org/2000/svg">
<mask id="mask0_1120_2179" style="mask-type:alpha" maskUnits="userSpaceOnUse" x="0" y="0" width="18" height="18">
<rect width="18" height="18" fill="#D9D9D9"/>
</mask>
<g mask="url(#mask0_1120_2179)">
<path d="M5.0625 15.75L4.875 14.1L7.0125 8.2125C7.2 8.3875 7.40313 8.53438 7.62188 8.65313C7.84063 8.77188 8.075 8.8625 8.325 8.925L6.2625 14.5875L5.0625 15.75ZM12.9375 15.75L11.7375 14.5875L9.675 8.925C9.925 8.8625 10.1594 8.77188 10.3781 8.65313C10.5969 8.53438 10.8 8.3875 10.9875 8.2125L13.125 14.1L12.9375 15.75ZM9 8.25C8.375 8.25 7.84375 8.03125 7.40625 7.59375C6.96875 7.15625 6.75 6.625 6.75 6C6.75 5.5125 6.89062 5.07812 7.17188 4.69688C7.45312 4.31562 7.8125 4.05 8.25 3.9V2.25H9.75V3.9C10.1875 4.05 10.5469 4.31562 10.8281 4.69688C11.1094 5.07812 11.25 5.5125 11.25 6C11.25 6.625 11.0312 7.15625 10.5938 7.59375C10.1562 8.03125 9.625 8.25 9 8.25ZM9 6.75C9.2125 6.75 9.39062 6.67812 9.53438 6.53438C9.67812 6.39062 9.75 6.2125 9.75 6C9.75 5.7875 9.67812 5.60938 9.53438 5.46562C9.39062 5.32187 9.2125 5.25 9 5.25C8.7875 5.25 8.60938 5.32187 8.46562 5.46562C8.32187 5.60938 8.25 5.7875 8.25 6C8.25 6.2125 8.32187 6.39062 8.46562 6.53438C8.60938 6.67812 8.7875 6.75 9 6.75Z" fill="#D4AF37"/>
</g>
</svg>
