<svg width="18" height="18" viewBox="0 0 18 18" fill="none" xmlns="http://www.w3.org/2000/svg">
<mask id="mask0_1120_2174" style="mask-type:alpha" maskUnits="userSpaceOnUse" x="0" y="0" width="18" height="18">
<rect width="18" height="18" fill="#D9D9D9"/>
</mask>
<g mask="url(#mask0_1120_2174)">
<path d="M5.25 6.75C4.8375 6.75 4.48438 6.60313 4.19063 6.30937C3.89688 6.01562 3.75 5.6625 3.75 5.25C3.75 4.8375 3.89688 4.48438 4.19063 4.19063C4.48438 3.89688 4.8375 3.75 5.25 3.75C5.6625 3.75 6.01562 3.89688 6.30937 4.19063C6.60313 4.48438 6.75 4.8375 6.75 5.25C6.75 5.6625 6.60313 6.01562 6.30937 6.30937C6.01562 6.60313 5.6625 6.75 5.25 6.75ZM3.75 16.5C3.5375 16.5 3.35938 16.4281 3.21563 16.2844C3.07188 16.1406 3 15.9625 3 15.75C2.5875 15.75 2.23438 15.6031 1.94063 15.3094C1.64688 15.0156 1.5 14.6625 1.5 14.25V9.75H3.75V9.1875C3.75 8.7125 3.9125 8.3125 4.2375 7.9875C4.5625 7.6625 4.9625 7.5 5.4375 7.5C5.6875 7.5 5.91875 7.55 6.13125 7.65C6.34375 7.75 6.5375 7.8875 6.7125 8.0625L7.7625 9.225C7.8625 9.325 7.95938 9.41875 8.05313 9.50625C8.14688 9.59375 8.25 9.675 8.3625 9.75H13.5V3.6375C13.5 3.4625 13.4375 3.3125 13.3125 3.1875C13.1875 3.0625 13.0375 3 12.8625 3C12.7875 3 12.7156 3.01562 12.6469 3.04688C12.5781 3.07812 12.5125 3.125 12.45 3.1875L11.5125 4.125C11.575 4.3375 11.5875 4.54688 11.55 4.75313C11.5125 4.95938 11.4375 5.15 11.325 5.325L9.2625 3.225C9.4375 3.1125 9.625 3.04063 9.825 3.00938C10.025 2.97812 10.225 3 10.425 3.075L11.3625 2.1375C11.5625 1.9375 11.7906 1.78125 12.0469 1.66875C12.3031 1.55625 12.575 1.5 12.8625 1.5C13.4625 1.5 13.9688 1.70625 14.3813 2.11875C14.7938 2.53125 15 3.0375 15 3.6375V9.75H16.5V14.25C16.5 14.6625 16.3531 15.0156 16.0594 15.3094C15.7656 15.6031 15.4125 15.75 15 15.75C15 15.9625 14.9281 16.1406 14.7844 16.2844C14.6406 16.4281 14.4625 16.5 14.25 16.5H3.75ZM3 14.25H15V11.25H3V14.25Z" fill="#D4AF37"/>
</g>
</svg>
