<svg width="18" height="18" viewBox="0 0 18 18" fill="none" xmlns="http://www.w3.org/2000/svg">
<mask id="mask0_1120_2169" style="mask-type:alpha" maskUnits="userSpaceOnUse" x="0" y="0" width="18" height="18">
<rect width="18" height="18" fill="#D9D9D9"/>
</mask>
<g mask="url(#mask0_1120_2169)">
<path d="M1.5 14.25V9.75C1.5 9.4125 1.56875 9.10625 1.70625 8.83125C1.84375 8.55625 2.025 8.3125 2.25 8.1V6C2.25 5.375 2.46875 4.84375 2.90625 4.40625C3.34375 3.96875 3.875 3.75 4.5 3.75H7.5C7.7875 3.75 8.05625 3.80313 8.30625 3.90938C8.55625 4.01562 8.7875 4.1625 9 4.35C9.2125 4.1625 9.44375 4.01562 9.69375 3.90938C9.94375 3.80313 10.2125 3.75 10.5 3.75H13.5C14.125 3.75 14.6562 3.96875 15.0938 4.40625C15.5312 4.84375 15.75 5.375 15.75 6V8.1C15.975 8.3125 16.1562 8.55625 16.2938 8.83125C16.4313 9.10625 16.5 9.4125 16.5 9.75V14.25H15V12.75H3V14.25H1.5ZM9.75 7.5H14.25V6C14.25 5.7875 14.1781 5.60938 14.0344 5.46563C13.8906 5.32188 13.7125 5.25 13.5 5.25H10.5C10.2875 5.25 10.1094 5.32188 9.96563 5.46563C9.82188 5.60938 9.75 5.7875 9.75 6V7.5ZM3.75 7.5H8.25V6C8.25 5.7875 8.17813 5.60938 8.03438 5.46563C7.89063 5.32188 7.7125 5.25 7.5 5.25H4.5C4.2875 5.25 4.10938 5.32188 3.96563 5.46563C3.82188 5.60938 3.75 5.7875 3.75 6V7.5ZM3 11.25H15V9.75C15 9.5375 14.9281 9.35938 14.7844 9.21562C14.6406 9.07188 14.4625 9 14.25 9H3.75C3.5375 9 3.35938 9.07188 3.21563 9.21562C3.07188 9.35938 3 9.5375 3 9.75V11.25Z" fill="#D4AF37"/>
</g>
</svg>
