<svg width="19" height="18" viewBox="0 0 19 18" fill="none" xmlns="http://www.w3.org/2000/svg">
<mask id="mask0_1027_1390" style="mask-type:alpha" maskUnits="userSpaceOnUse" x="0" y="0" width="19" height="18">
<rect x="0.25" width="18" height="18" fill="#D9D9D9"/>
</mask>
<g mask="url(#mask0_1027_1390)">
<path d="M1.75024 14.25V9.75C1.75024 9.4125 1.81899 9.10625 1.95649 8.83125C2.09399 8.55625 2.27524 8.3125 2.50024 8.1V6C2.50024 5.375 2.71899 4.84375 3.15649 4.40625C3.59399 3.96875 4.12524 3.75 4.75024 3.75H7.75024C8.03774 3.75 8.30649 3.80313 8.55649 3.90938C8.80649 4.01562 9.03774 4.1625 9.25024 4.35C9.46274 4.1625 9.69399 4.01562 9.94399 3.90938C10.194 3.80313 10.4627 3.75 10.7502 3.75H13.7502C14.3752 3.75 14.9065 3.96875 15.344 4.40625C15.7815 4.84375 16.0002 5.375 16.0002 6V8.1C16.2252 8.3125 16.4065 8.55625 16.544 8.83125C16.6815 9.10625 16.7502 9.4125 16.7502 9.75V14.25H15.2502V12.75H3.25024V14.25H1.75024ZM10.0002 7.5H14.5002V6C14.5002 5.7875 14.4284 5.60938 14.2846 5.46563C14.1409 5.32188 13.9627 5.25 13.7502 5.25H10.7502C10.5377 5.25 10.3596 5.32188 10.2159 5.46563C10.0721 5.60938 10.0002 5.7875 10.0002 6V7.5ZM4.00024 7.5H8.50024V6C8.50024 5.7875 8.42837 5.60938 8.28462 5.46563C8.14087 5.32188 7.96274 5.25 7.75024 5.25H4.75024C4.53774 5.25 4.35962 5.32188 4.21587 5.46563C4.07212 5.60938 4.00024 5.7875 4.00024 6V7.5ZM3.25024 11.25H15.2502V9.75C15.2502 9.5375 15.1784 9.35938 15.0346 9.21562C14.8909 9.07188 14.7127 9 14.5002 9H4.00024C3.78774 9 3.60962 9.07188 3.46587 9.21562C3.32212 9.35938 3.25024 9.5375 3.25024 9.75V11.25Z" fill="black"/>
</g>
</svg>
