<svg width="19" height="18" viewBox="0 0 19 18" fill="none" xmlns="http://www.w3.org/2000/svg">
<mask id="mask0_1027_1395" style="mask-type:alpha" maskUnits="userSpaceOnUse" x="0" y="0" width="19" height="18">
<rect x="0.25" width="18" height="18" fill="#D9D9D9"/>
</mask>
<g mask="url(#mask0_1027_1395)">
<path d="M5.5 6.75C5.0875 6.75 4.73438 6.60313 4.44063 6.30937C4.14688 6.01562 4 5.6625 4 5.25C4 4.8375 4.14688 4.48438 4.44063 4.19063C4.73438 3.89688 5.0875 3.75 5.5 3.75C5.9125 3.75 6.26562 3.89688 6.55937 4.19063C6.85313 4.48438 7 4.8375 7 5.25C7 5.6625 6.85313 6.01562 6.55937 6.30937C6.26562 6.60313 5.9125 6.75 5.5 6.75ZM4 16.5C3.7875 16.5 3.60938 16.4281 3.46563 16.2844C3.32188 16.1406 3.25 15.9625 3.25 15.75C2.8375 15.75 2.48438 15.6031 2.19063 15.3094C1.89688 15.0156 1.75 14.6625 1.75 14.25V9.75H4V9.1875C4 8.7125 4.1625 8.3125 4.4875 7.9875C4.8125 7.6625 5.2125 7.5 5.6875 7.5C5.9375 7.5 6.16875 7.55 6.38125 7.65C6.59375 7.75 6.7875 7.8875 6.9625 8.0625L8.0125 9.225C8.1125 9.325 8.20938 9.41875 8.30313 9.50625C8.39688 9.59375 8.5 9.675 8.6125 9.75H13.75V3.6375C13.75 3.4625 13.6875 3.3125 13.5625 3.1875C13.4375 3.0625 13.2875 3 13.1125 3C13.0375 3 12.9656 3.01562 12.8969 3.04688C12.8281 3.07812 12.7625 3.125 12.7 3.1875L11.7625 4.125C11.825 4.3375 11.8375 4.54688 11.8 4.75313C11.7625 4.95938 11.6875 5.15 11.575 5.325L9.5125 3.225C9.6875 3.1125 9.875 3.04063 10.075 3.00938C10.275 2.97812 10.475 3 10.675 3.075L11.6125 2.1375C11.8125 1.9375 12.0406 1.78125 12.2969 1.66875C12.5531 1.55625 12.825 1.5 13.1125 1.5C13.7125 1.5 14.2188 1.70625 14.6313 2.11875C15.0438 2.53125 15.25 3.0375 15.25 3.6375V9.75H16.75V14.25C16.75 14.6625 16.6031 15.0156 16.3094 15.3094C16.0156 15.6031 15.6625 15.75 15.25 15.75C15.25 15.9625 15.1781 16.1406 15.0344 16.2844C14.8906 16.4281 14.7125 16.5 14.5 16.5H4ZM3.25 14.25H15.25V11.25H3.25V14.25Z" fill="black"/>
</g>
</svg>
