<svg width="19" height="18" viewBox="0 0 19 18" fill="none" xmlns="http://www.w3.org/2000/svg">
<mask id="mask0_1027_1400" style="mask-type:alpha" maskUnits="userSpaceOnUse" x="0" y="0" width="19" height="18">
<rect x="0.25" width="18" height="18" fill="#D9D9D9"/>
</mask>
<g mask="url(#mask0_1027_1400)">
<path d="M5.3125 15.75L5.125 14.1L7.2625 8.2125C7.45 8.3875 7.65313 8.53438 7.87188 8.65313C8.09063 8.77188 8.325 8.8625 8.575 8.925L6.5125 14.5875L5.3125 15.75ZM13.1875 15.75L11.9875 14.5875L9.925 8.925C10.175 8.8625 10.4094 8.77188 10.6281 8.65313C10.8469 8.53438 11.05 8.3875 11.2375 8.2125L13.375 14.1L13.1875 15.75ZM9.25 8.25C8.625 8.25 8.09375 8.03125 7.65625 7.59375C7.21875 7.15625 7 6.625 7 6C7 5.5125 7.14062 5.07812 7.42188 4.69688C7.70312 4.31562 8.0625 4.05 8.5 3.9V2.25H10V3.9C10.4375 4.05 10.7969 4.31562 11.0781 4.69688C11.3594 5.07812 11.5 5.5125 11.5 6C11.5 6.625 11.2812 7.15625 10.8438 7.59375C10.4062 8.03125 9.875 8.25 9.25 8.25ZM9.25 6.75C9.4625 6.75 9.64062 6.67812 9.78438 6.53438C9.92812 6.39062 10 6.2125 10 6C10 5.7875 9.92812 5.60938 9.78438 5.46562C9.64062 5.32187 9.4625 5.25 9.25 5.25C9.0375 5.25 8.85938 5.32187 8.71562 5.46562C8.57187 5.60938 8.5 5.7875 8.5 6C8.5 6.2125 8.57187 6.39062 8.71562 6.53438C8.85938 6.67812 9.0375 6.75 9.25 6.75Z" fill="black"/>
</g>
</svg>
