<svg width="19" height="19" viewBox="0 0 19 19" fill="none" xmlns="http://www.w3.org/2000/svg">
<g clip-path="url(#clip0_1337_1994)">
<path d="M12.2253 10.9537C12.3751 10.2043 12.7499 9.67973 13.3494 9.0802C14.0988 8.40572 14.4735 7.43147 14.4735 6.45722C14.4735 5.26467 13.9998 4.12096 13.1565 3.2777C12.3133 2.43443 11.1696 1.96069 9.977 1.96069C8.78444 1.96069 7.64073 2.43443 6.79747 3.2777C5.95421 4.12096 5.48047 5.26467 5.48047 6.45722C5.48047 7.20664 5.63035 8.10595 6.6046 9.0802C7.1292 9.60479 7.57885 10.2043 7.72873 10.9537" stroke="#F59E0B" stroke-width="2" stroke-linecap="round" stroke-linejoin="round"/>
<path d="M7.73047 13.9514H12.227" stroke="#F59E0B" stroke-width="2" stroke-linecap="round" stroke-linejoin="round"/>
<path d="M8.48047 16.9492H11.4782" stroke="#F59E0B" stroke-width="2" stroke-linecap="round" stroke-linejoin="round"/>
</g>
<defs>
<clipPath id="clip0_1337_1994">
<rect width="17.9861" height="17.9861" fill="white" transform="translate(0.984375 0.461914)"/>
</clipPath>
</defs>
</svg>
