<svg width="26" height="26" viewBox="0 0 26 26" fill="none" xmlns="http://www.w3.org/2000/svg">
<mask id="mask0_1027_1305" style="mask-type:alpha" maskUnits="userSpaceOnUse" x="0" y="0" width="26" height="26">
<rect width="26" height="26" fill="#D9D9D9"/>
</mask>
<g mask="url(#mask0_1027_1305)">
<path d="M5.41667 23.8333C4.82083 23.8333 4.31076 23.6211 3.88646 23.1968C3.46215 22.7725 3.25 22.2625 3.25 21.6666V6.49996C3.25 5.90413 3.46215 5.39406 3.88646 4.96975C4.31076 4.54545 4.82083 4.33329 5.41667 4.33329H6.5V2.16663H8.66667V4.33329H17.3333V2.16663H19.5V4.33329H20.5833C21.1792 4.33329 21.6892 4.54545 22.1135 4.96975C22.5378 5.39406 22.75 5.90413 22.75 6.49996V21.6666C22.75 22.2625 22.5378 22.7725 22.1135 23.1968C21.6892 23.6211 21.1792 23.8333 20.5833 23.8333H5.41667ZM5.41667 21.6666H20.5833V10.8333H5.41667V21.6666ZM5.41667 8.66663H20.5833V6.49996H5.41667V8.66663ZM13 15.1666C12.6931 15.1666 12.4358 15.0628 12.2281 14.8552C12.0205 14.6475 11.9167 14.3902 11.9167 14.0833C11.9167 13.7763 12.0205 13.5191 12.2281 13.3114C12.4358 13.1038 12.6931 13 13 13C13.3069 13 13.5642 13.1038 13.7719 13.3114C13.9795 13.5191 14.0833 13.7763 14.0833 14.0833C14.0833 14.3902 13.9795 14.6475 13.7719 14.8552C13.5642 15.0628 13.3069 15.1666 13 15.1666ZM8.66667 15.1666C8.35972 15.1666 8.10243 15.0628 7.89479 14.8552C7.68715 14.6475 7.58333 14.3902 7.58333 14.0833C7.58333 13.7763 7.68715 13.5191 7.89479 13.3114C8.10243 13.1038 8.35972 13 8.66667 13C8.97361 13 9.2309 13.1038 9.43854 13.3114C9.64618 13.5191 9.75 13.7763 9.75 14.0833C9.75 14.3902 9.64618 14.6475 9.43854 14.8552C9.2309 15.0628 8.97361 15.1666 8.66667 15.1666ZM17.3333 15.1666C17.0264 15.1666 16.7691 15.0628 16.5615 14.8552C16.3538 14.6475 16.25 14.3902 16.25 14.0833C16.25 13.7763 16.3538 13.5191 16.5615 13.3114C16.7691 13.1038 17.0264 13 17.3333 13C17.6403 13 17.8976 13.1038 18.1052 13.3114C18.3128 13.5191 18.4167 13.7763 18.4167 14.0833C18.4167 14.3902 18.3128 14.6475 18.1052 14.8552C17.8976 15.0628 17.6403 15.1666 17.3333 15.1666ZM13 19.5C12.6931 19.5 12.4358 19.3961 12.2281 19.1885C12.0205 18.9809 11.9167 18.7236 11.9167 18.4166C11.9167 18.1097 12.0205 17.8524 12.2281 17.6448C12.4358 17.4371 12.6931 17.3333 13 17.3333C13.3069 17.3333 13.5642 17.4371 13.7719 17.6448C13.9795 17.8524 14.0833 18.1097 14.0833 18.4166C14.0833 18.7236 13.9795 18.9809 13.7719 19.1885C13.5642 19.3961 13.3069 19.5 13 19.5ZM8.66667 19.5C8.35972 19.5 8.10243 19.3961 7.89479 19.1885C7.68715 18.9809 7.58333 18.7236 7.58333 18.4166C7.58333 18.1097 7.68715 17.8524 7.89479 17.6448C8.10243 17.4371 8.35972 17.3333 8.66667 17.3333C8.97361 17.3333 9.2309 17.4371 9.43854 17.6448C9.64618 17.8524 9.75 18.1097 9.75 18.4166C9.75 18.7236 9.64618 18.9809 9.43854 19.1885C9.2309 19.3961 8.97361 19.5 8.66667 19.5ZM17.3333 19.5C17.0264 19.5 16.7691 19.3961 16.5615 19.1885C16.3538 18.9809 16.25 18.7236 16.25 18.4166C16.25 18.1097 16.3538 17.8524 16.5615 17.6448C16.7691 17.4371 17.0264 17.3333 17.3333 17.3333C17.6403 17.3333 17.8976 17.4371 18.1052 17.6448C18.3128 17.8524 18.4167 18.1097 18.4167 18.4166C18.4167 18.7236 18.3128 18.9809 18.1052 19.1885C17.8976 19.3961 17.6403 19.5 17.3333 19.5Z" fill="#D4AF37"/>
</g>
</svg>
