<svg width="25" height="24" viewBox="0 0 25 24" fill="none" xmlns="http://www.w3.org/2000/svg">
<path d="M11.3822 21.6L17.3822 9.9H13.1822V2.4L7.18217 14.1H11.3822V21.6ZM12.2222 24C10.5622 24 9.00217 23.685 7.54217 23.055C6.08217 22.425 4.81217 21.57 3.73217 20.49C2.65217 19.41 1.79717 18.14 1.16717 16.68C0.537168 15.22 0.222168 13.66 0.222168 12C0.222168 10.34 0.537168 8.78 1.16717 7.32C1.79717 5.86 2.65217 4.59 3.73217 3.51C4.81217 2.43 6.08217 1.575 7.54217 0.945C9.00217 0.315 10.5622 0 12.2222 0C13.8822 0 15.4422 0.315 16.9022 0.945C18.3622 1.575 19.6322 2.43 20.7122 3.51C21.7922 4.59 22.6472 5.86 23.2772 7.32C23.9072 8.78 24.2222 10.34 24.2222 12C24.2222 13.66 23.9072 15.22 23.2772 16.68C22.6472 18.14 21.7922 19.41 20.7122 20.49C19.6322 21.57 18.3622 22.425 16.9022 23.055C15.4422 23.685 13.8822 24 12.2222 24ZM12.2222 21.6C14.8822 21.6 17.1472 20.665 19.0172 18.795C20.8872 16.925 21.8222 14.66 21.8222 12C21.8222 9.34 20.8872 7.075 19.0172 5.205C17.1472 3.335 14.8822 2.4 12.2222 2.4C9.56217 2.4 7.29717 3.335 5.42717 5.205C3.55717 7.075 2.62217 9.34 2.62217 12C2.62217 14.66 3.55717 16.925 5.42717 18.795C7.29717 20.665 9.56217 21.6 12.2222 21.6Z" fill="#D4AF37"/>
</svg>
