<svg width="13" height="12" viewBox="0 0 13 12" fill="none" xmlns="http://www.w3.org/2000/svg">
<mask id="mask0_1027_1383" style="mask-type:alpha" maskUnits="userSpaceOnUse" x="0" y="0" width="13" height="12">
<rect x="0.25" width="12" height="12" fill="#D9D9D9"/>
</mask>
<g mask="url(#mask0_1027_1383)">
<path d="M6.25 11C5.36667 11 4.64583 10.8604 4.0875 10.5813C3.52917 10.3021 3.25 9.94167 3.25 9.5C3.25 9.3 3.31042 9.11458 3.43125 8.94375C3.55208 8.77292 3.72083 8.625 3.9375 8.5L4.725 9.2375C4.65 9.27083 4.56875 9.30833 4.48125 9.35C4.39375 9.39167 4.325 9.44167 4.275 9.5C4.38333 9.63333 4.63333 9.75 5.025 9.85C5.41667 9.95 5.825 10 6.25 10C6.675 10 7.08542 9.95 7.48125 9.85C7.87708 9.75 8.12917 9.63333 8.2375 9.5C8.17917 9.43333 8.10417 9.37917 8.0125 9.3375C7.92083 9.29583 7.83333 9.25833 7.75 9.225L8.525 8.475C8.75833 8.60833 8.9375 8.76042 9.0625 8.93125C9.1875 9.10208 9.25 9.29167 9.25 9.5C9.25 9.94167 8.97083 10.3021 8.4125 10.5813C7.85417 10.8604 7.13333 11 6.25 11ZM6.2625 8.25C7.0875 7.64167 7.70833 7.03125 8.125 6.41875C8.54167 5.80625 8.75 5.19167 8.75 4.575C8.75 3.725 8.47917 3.08333 7.9375 2.65C7.39583 2.21667 6.83333 2 6.25 2C5.66667 2 5.10417 2.21667 4.5625 2.65C4.02083 3.08333 3.75 3.725 3.75 4.575C3.75 5.13333 3.95417 5.71458 4.3625 6.31875C4.77083 6.92292 5.40417 7.56667 6.2625 8.25ZM6.25 9.5C5.075 8.63333 4.19792 7.79167 3.61875 6.975C3.03958 6.15833 2.75 5.35833 2.75 4.575C2.75 3.98333 2.85625 3.46458 3.06875 3.01875C3.28125 2.57292 3.55417 2.2 3.8875 1.9C4.22083 1.6 4.59583 1.375 5.0125 1.225C5.42917 1.075 5.84167 1 6.25 1C6.65833 1 7.07083 1.075 7.4875 1.225C7.90417 1.375 8.27917 1.6 8.6125 1.9C8.94583 2.2 9.21875 2.57292 9.43125 3.01875C9.64375 3.46458 9.75 3.98333 9.75 4.575C9.75 5.35833 9.46042 6.15833 8.88125 6.975C8.30208 7.79167 7.425 8.63333 6.25 9.5ZM6.25 5.5C6.525 5.5 6.76042 5.40208 6.95625 5.20625C7.15208 5.01042 7.25 4.775 7.25 4.5C7.25 4.225 7.15208 3.98958 6.95625 3.79375C6.76042 3.59792 6.525 3.5 6.25 3.5C5.975 3.5 5.73958 3.59792 5.54375 3.79375C5.34792 3.98958 5.25 4.225 5.25 4.5C5.25 4.775 5.34792 5.01042 5.54375 5.20625C5.73958 5.40208 5.975 5.5 6.25 5.5Z" fill="black"/>
</g>
</svg>
