<svg width="18" height="18" viewBox="0 0 18 18" fill="none" xmlns="http://www.w3.org/2000/svg">
<mask id="mask0_1120_2162" style="mask-type:alpha" maskUnits="userSpaceOnUse" x="0" y="0" width="18" height="18">
<rect width="18" height="18" fill="#D9D9D9"/>
</mask>
<g mask="url(#mask0_1120_2162)">
<path d="M9 16.5C7.675 16.5 6.59375 16.2906 5.75625 15.8719C4.91875 15.4531 4.5 14.9125 4.5 14.25C4.5 13.95 4.59063 13.6719 4.77188 13.4156C4.95312 13.1594 5.20625 12.9375 5.53125 12.75L6.7125 13.8563C6.6 13.9062 6.47813 13.9625 6.34688 14.025C6.21563 14.0875 6.1125 14.1625 6.0375 14.25C6.2 14.45 6.575 14.625 7.1625 14.775C7.75 14.925 8.3625 15 9 15C9.6375 15 10.2531 14.925 10.8469 14.775C11.4406 14.625 11.8188 14.45 11.9813 14.25C11.8938 14.15 11.7812 14.0688 11.6438 14.0063C11.5063 13.9438 11.375 13.8875 11.25 13.8375L12.4125 12.7125C12.7625 12.9125 13.0312 13.1406 13.2188 13.3969C13.4062 13.6531 13.5 13.9375 13.5 14.25C13.5 14.9125 13.0813 15.4531 12.2437 15.8719C11.4062 16.2906 10.325 16.5 9 16.5ZM9.01875 12.375C10.2562 11.4625 11.1875 10.5469 11.8125 9.62813C12.4375 8.70938 12.75 7.7875 12.75 6.8625C12.75 5.5875 12.3438 4.625 11.5312 3.975C10.7188 3.325 9.875 3 9 3C8.125 3 7.28125 3.325 6.46875 3.975C5.65625 4.625 5.25 5.5875 5.25 6.8625C5.25 7.7 5.55625 8.57187 6.16875 9.47812C6.78125 10.3844 7.73125 11.35 9.01875 12.375ZM9 14.25C7.2375 12.95 5.92188 11.6875 5.05313 10.4625C4.18438 9.2375 3.75 8.0375 3.75 6.8625C3.75 5.975 3.90937 5.19687 4.22812 4.52812C4.54688 3.85938 4.95625 3.3 5.45625 2.85C5.95625 2.4 6.51875 2.0625 7.14375 1.8375C7.76875 1.6125 8.3875 1.5 9 1.5C9.6125 1.5 10.2313 1.6125 10.8563 1.8375C11.4813 2.0625 12.0437 2.4 12.5438 2.85C13.0438 3.3 13.4531 3.85938 13.7719 4.52812C14.0906 5.19687 14.25 5.975 14.25 6.8625C14.25 8.0375 13.8156 9.2375 12.9469 10.4625C12.0781 11.6875 10.7625 12.95 9 14.25ZM9 8.25C9.4125 8.25 9.76563 8.10313 10.0594 7.80938C10.3531 7.51563 10.5 7.1625 10.5 6.75C10.5 6.3375 10.3531 5.98438 10.0594 5.69063C9.76563 5.39688 9.4125 5.25 9 5.25C8.5875 5.25 8.23438 5.39688 7.94063 5.69063C7.64688 5.98438 7.5 6.3375 7.5 6.75C7.5 7.1625 7.64688 7.51563 7.94063 7.80938C8.23438 8.10313 8.5875 8.25 9 8.25Z" fill="#D4AF37"/>
</g>
</svg>
