<svg width="40" height="41" viewBox="0 0 40 41" fill="none" xmlns="http://www.w3.org/2000/svg">
<mask id="mask0_1027_616" style="mask-type:alpha" maskUnits="userSpaceOnUse" x="0" y="0" width="40" height="41">
<rect y="0.5" width="40" height="40" fill="#D9D9D9"/>
</mask>
<g mask="url(#mask0_1027_616)">
<path d="M18.3333 35.5H8.33333C7.41667 35.5 6.63194 35.1736 5.97917 34.5208C5.32639 33.8681 5 33.0833 5 32.1667V8.83333C5 7.91667 5.32639 7.13194 5.97917 6.47917C6.63194 5.82639 7.41667 5.5 8.33333 5.5H18.3333V35.5ZM15 32.1667V8.83333H8.33333V32.1667H15ZM21.6667 18.8333V5.5H31.6667C32.5833 5.5 33.3681 5.82639 34.0208 6.47917C34.6736 7.13194 35 7.91667 35 8.83333V18.8333H21.6667ZM25 15.5H31.6667V8.83333H25V15.5ZM21.6667 35.5V22.1667H35V32.1667C35 33.0833 34.6736 33.8681 34.0208 34.5208C33.3681 35.1736 32.5833 35.5 31.6667 35.5H21.6667ZM25 32.1667H31.6667V25.5H25V32.1667Z" fill="#D4AF37"/>
</g>
</svg>
