<svg width="98" height="30" viewBox="0 0 98 30" fill="none" xmlns="http://www.w3.org/2000/svg">
<path d="M26.1622 15.5273C23.6033 17.9538 20.4269 20.292 17.9122 21.7038C15.7063 22.9832 12.0445 24.6597 8.64746 25.5862C16.3239 30.7921 26.8239 24.8803 26.1622 15.5273ZM20.3386 23.5568C19.8975 23.5568 19.5445 23.2038 19.5445 22.7626C19.5445 22.3215 19.8975 21.9685 20.3386 21.9685C20.7798 21.9685 21.1328 22.3215 21.1328 22.7626C21.1328 23.2038 20.7798 23.5568 20.3386 23.5568Z" fill="white"/>
<path d="M28.8102 8.64845C28.0602 7.32492 25.766 7.0161 22.7219 7.58963C23.2955 8.11904 23.6043 8.42786 23.9131 8.7808C24.9719 8.64845 26.8249 8.60433 27.1778 9.22198C29.5602 13.4573 4.76604 27.6632 2.38369 23.2955C2.1631 22.9426 2.47193 21.7514 3.92781 19.9867C3.83957 19.6779 3.70722 19.3249 3.53075 18.4426C1.32487 20.8249 0.354279 22.9867 1.1484 24.3543C3.22193 28.0602 13.6337 23.6043 17.6925 21.3102C21.5749 19.1043 30.9278 12.3543 28.8102 8.64845Z" fill="white"/>
<path d="M38.488 17.288L37.6 24.5H35.368L37.468 7.304H41.992C42.904 7.304 43.692 7.4 44.356 7.592C45.028 7.784 45.58 8.06 46.012 8.42C46.452 8.772 46.776 9.204 46.984 9.716C47.2 10.22 47.308 10.784 47.308 11.408C47.308 12.104 47.204 12.752 46.996 13.352C46.788 13.952 46.488 14.492 46.096 14.972C45.704 15.444 45.232 15.848 44.68 16.184C44.128 16.512 43.504 16.756 42.808 16.916C43.064 17.092 43.276 17.332 43.444 17.636L47.152 24.5H45.16C44.768 24.5 44.488 24.34 44.32 24.02L41.08 17.828C40.976 17.628 40.856 17.488 40.72 17.408C40.584 17.328 40.368 17.288 40.072 17.288H38.488ZM39.508 9.068L38.692 15.656H40.888C41.568 15.656 42.168 15.56 42.688 15.368C43.208 15.176 43.644 14.908 43.996 14.564C44.356 14.212 44.624 13.8 44.8 13.328C44.984 12.848 45.076 12.324 45.076 11.756C45.076 10.884 44.8 10.22 44.248 9.764C43.704 9.3 42.884 9.068 41.788 9.068H39.508ZM58.822 14.948C58.822 15.476 58.714 15.964 58.498 16.412C58.282 16.852 57.886 17.252 57.31 17.612C56.734 17.964 55.942 18.272 54.934 18.536C53.926 18.8 52.63 19.012 51.046 19.172C51.038 19.26 51.034 19.348 51.034 19.436C51.034 19.516 51.034 19.6 51.034 19.688C51.034 20.76 51.266 21.58 51.73 22.148C52.202 22.708 52.91 22.988 53.854 22.988C54.238 22.988 54.578 22.948 54.874 22.868C55.178 22.788 55.446 22.692 55.678 22.58C55.918 22.46 56.126 22.332 56.302 22.196C56.486 22.052 56.654 21.924 56.806 21.812C56.958 21.692 57.098 21.592 57.226 21.512C57.354 21.432 57.482 21.392 57.61 21.392C57.754 21.392 57.886 21.46 58.006 21.596L58.534 22.256C58.126 22.68 57.726 23.044 57.334 23.348C56.95 23.644 56.554 23.892 56.146 24.092C55.738 24.292 55.31 24.436 54.862 24.524C54.422 24.62 53.946 24.668 53.434 24.668C52.738 24.668 52.114 24.552 51.562 24.32C51.01 24.088 50.542 23.76 50.158 23.336C49.774 22.904 49.478 22.384 49.27 21.776C49.062 21.168 48.958 20.488 48.958 19.736C48.958 19.112 49.022 18.492 49.15 17.876C49.286 17.252 49.478 16.66 49.726 16.1C49.982 15.54 50.29 15.02 50.65 14.54C51.018 14.06 51.434 13.648 51.898 13.304C52.37 12.952 52.886 12.676 53.446 12.476C54.014 12.276 54.622 12.176 55.27 12.176C55.886 12.176 56.418 12.264 56.866 12.44C57.314 12.616 57.682 12.84 57.97 13.112C58.258 13.384 58.47 13.684 58.606 14.012C58.75 14.34 58.822 14.652 58.822 14.948ZM55.15 13.712C54.646 13.712 54.182 13.816 53.758 14.024C53.334 14.232 52.958 14.52 52.63 14.888C52.302 15.248 52.022 15.676 51.79 16.172C51.558 16.66 51.378 17.188 51.25 17.756C52.482 17.604 53.47 17.432 54.214 17.24C54.958 17.04 55.53 16.828 55.93 16.604C56.33 16.372 56.594 16.124 56.722 15.86C56.85 15.596 56.914 15.32 56.914 15.032C56.914 14.888 56.882 14.74 56.818 14.588C56.754 14.428 56.65 14.284 56.506 14.156C56.37 14.028 56.19 13.924 55.966 13.844C55.742 13.756 55.47 13.712 55.15 13.712ZM60.1645 24.5L61.6165 12.332H62.6845C63.1645 12.332 63.4045 12.572 63.4045 13.052L63.2245 15.404C63.8725 14.332 64.6005 13.524 65.4085 12.98C66.2245 12.436 67.0685 12.164 67.9405 12.164C68.8445 12.164 69.5445 12.468 70.0405 13.076C70.5445 13.684 70.7965 14.572 70.7965 15.74C70.7965 15.9 70.7925 16.064 70.7845 16.232C70.7765 16.4 70.7605 16.576 70.7365 16.76L69.8245 24.5H67.6885L68.6005 16.76C68.6165 16.6 68.6285 16.448 68.6365 16.304C68.6525 16.152 68.6605 16.008 68.6605 15.872C68.6605 15.216 68.5365 14.732 68.2885 14.42C68.0485 14.1 67.6685 13.94 67.1485 13.94C66.7645 13.94 66.3725 14.044 65.9725 14.252C65.5805 14.46 65.2005 14.756 64.8325 15.14C64.4645 15.516 64.1205 15.976 63.8005 16.52C63.4885 17.056 63.2205 17.656 62.9965 18.32L62.3005 24.5H60.1645ZM73.8533 22.208C73.8533 22.16 73.8533 22.1 73.8533 22.028C73.8613 21.948 73.8693 21.836 73.8773 21.692C73.8933 21.548 73.9133 21.36 73.9373 21.128C73.9613 20.896 73.9973 20.592 74.0453 20.216L74.8013 14.132H73.4453C73.3413 14.132 73.2533 14.104 73.1813 14.048C73.1173 13.984 73.0853 13.888 73.0853 13.76C73.0853 13.736 73.0893 13.688 73.0973 13.616C73.1053 13.544 73.1133 13.464 73.1213 13.376C73.1373 13.28 73.1493 13.184 73.1573 13.088C73.1733 12.992 73.1853 12.9 73.1933 12.812L75.0653 12.56L75.9653 8.804C75.9973 8.684 76.0573 8.588 76.1453 8.516C76.2333 8.436 76.3413 8.396 76.4693 8.396H77.5973L77.0693 12.584H80.2613L80.0813 14.132H76.8773L76.1453 20.108C76.1053 20.436 76.0733 20.7 76.0493 20.9C76.0333 21.1 76.0173 21.26 76.0013 21.38C75.9933 21.5 75.9853 21.584 75.9773 21.632C75.9773 21.68 75.9773 21.716 75.9773 21.74C75.9773 22.148 76.0693 22.452 76.2533 22.652C76.4453 22.844 76.7053 22.94 77.0333 22.94C77.2413 22.94 77.4253 22.912 77.5853 22.856C77.7453 22.792 77.8813 22.724 77.9933 22.652C78.1133 22.58 78.2133 22.516 78.2933 22.46C78.3733 22.396 78.4453 22.364 78.5093 22.364C78.5733 22.364 78.6213 22.38 78.6533 22.412C78.6933 22.444 78.7333 22.496 78.7733 22.568L79.2173 23.588C78.8333 23.932 78.3893 24.204 77.8853 24.404C77.3893 24.596 76.8893 24.692 76.3853 24.692C75.6093 24.692 74.9973 24.48 74.5493 24.056C74.1013 23.632 73.8693 23.016 73.8533 22.208ZM89.9639 24.5H88.8599C88.5799 24.5 88.3879 24.428 88.2839 24.284C88.1879 24.14 88.1399 23.964 88.1399 23.756L88.3559 21.296C88.0679 21.808 87.7559 22.272 87.4199 22.688C87.0919 23.104 86.7399 23.46 86.3639 23.756C85.9959 24.044 85.6079 24.268 85.1999 24.428C84.7919 24.588 84.3679 24.668 83.9279 24.668C83.4479 24.668 83.0119 24.576 82.6199 24.392C82.2279 24.2 81.8919 23.924 81.6119 23.564C81.3399 23.196 81.1279 22.748 80.9759 22.22C80.8239 21.684 80.7479 21.072 80.7479 20.384C80.7479 19.664 80.8359 18.964 81.0119 18.284C81.1959 17.596 81.4519 16.948 81.7799 16.34C82.1159 15.732 82.5159 15.176 82.9799 14.672C83.4439 14.16 83.9599 13.72 84.5279 13.352C85.1039 12.976 85.7199 12.688 86.3759 12.488C87.0319 12.28 87.7199 12.176 88.4399 12.176C88.9599 12.176 89.4639 12.22 89.9519 12.308C90.4479 12.388 90.9359 12.532 91.4159 12.74L89.9639 24.5ZM84.7319 22.892C85.1239 22.892 85.5079 22.772 85.8839 22.532C86.2599 22.284 86.6159 21.944 86.9519 21.512C87.2879 21.08 87.5999 20.568 87.8879 19.976C88.1839 19.376 88.4439 18.72 88.6679 18.008L89.1839 13.832C89.0079 13.792 88.8319 13.768 88.6559 13.76C88.4879 13.744 88.3199 13.736 88.1519 13.736C87.6719 13.736 87.2079 13.816 86.7599 13.976C86.3119 14.128 85.8919 14.344 85.4999 14.624C85.1079 14.904 84.7519 15.24 84.4319 15.632C84.1119 16.016 83.8359 16.44 83.6039 16.904C83.3799 17.368 83.2039 17.864 83.0759 18.392C82.9479 18.912 82.8839 19.448 82.8839 20C82.8839 21.928 83.4999 22.892 84.7319 22.892ZM93.3451 24.5L95.4931 6.824H97.5931L95.4451 24.5H93.3451Z" fill="white"/>
</svg>
