<svg width="80" height="84" viewBox="0 0 80 84" fill="none" xmlns="http://www.w3.org/2000/svg">
<path d="M58.8333 83.6666V71.1666H46.3333V62.8333H58.8333V50.3333H67.1667V62.8333H79.6667V71.1666H67.1667V83.6666H58.8333ZM8.83333 75.3333C6.54167 75.3333 4.57986 74.5173 2.94792 72.8853C1.31597 71.2534 0.5 69.2916 0.5 66.9999V16.9999C0.5 14.7083 1.31597 12.7464 2.94792 11.1145C4.57986 9.48256 6.54167 8.66659 8.83333 8.66659H13V0.333252H21.3333V8.66659H46.3333V0.333252H54.6667V8.66659H58.8333C61.125 8.66659 63.0868 9.48256 64.7188 11.1145C66.3507 12.7464 67.1667 14.7083 67.1667 16.9999V42.4166C65.7778 42.2083 64.3889 42.1041 63 42.1041C61.6111 42.1041 60.2222 42.2083 58.8333 42.4166V33.6666H8.83333V66.9999H38C38 68.3888 38.1042 69.7777 38.3125 71.1666C38.5208 72.5555 38.9028 73.9444 39.4583 75.3333H8.83333ZM8.83333 25.3333H58.8333V16.9999H8.83333V25.3333Z" fill="#CCCCCC"/>
</svg>
