<svg width="35" height="35" viewBox="0 0 35 35" fill="none" xmlns="http://www.w3.org/2000/svg">
<rect width="35" height="35" rx="17.5" fill="#D9D9D9"/>
<mask id="mask0_1114_1028" style="mask-type:alpha" maskUnits="userSpaceOnUse" x="0" y="0" width="35" height="35">
<rect width="35" height="35" fill="#D9D9D9"/>
</mask>
<g mask="url(#mask0_1114_1028)">
<path d="M17.4993 26.9795C18.107 26.9795 18.6235 26.7668 19.0488 26.3415C19.4742 25.9161 19.6868 25.3996 19.6868 24.792H15.3118C15.3118 25.3996 15.5245 25.9161 15.9499 26.3415C16.3752 26.7668 16.8917 26.9795 17.4993 26.9795ZM10.2077 23.3337H24.791V20.417H23.3327V16.6253C23.3327 15.1427 22.9499 13.7877 22.1842 12.5602C21.4186 11.3328 20.3431 10.5489 18.9577 10.2087V9.47949C18.9577 9.0663 18.8179 8.71994 18.5384 8.44043C18.2589 8.16092 17.9125 8.02116 17.4993 8.02116C17.0862 8.02116 16.7398 8.16092 16.4603 8.44043C16.1808 8.71994 16.041 9.0663 16.041 9.47949V10.2087C14.6556 10.5489 13.5801 11.3328 12.8145 12.5602C12.0488 13.7877 11.666 15.1427 11.666 16.6253V20.417H10.2077V23.3337ZM14.5827 20.417V16.042C14.5827 15.2399 14.8683 14.5533 15.4395 13.9821C16.0106 13.4109 16.6973 13.1253 17.4993 13.1253C18.3014 13.1253 18.9881 13.4109 19.5592 13.9821C20.1304 14.5533 20.416 15.2399 20.416 16.042V20.417H14.5827ZM17.4993 32.0837C15.482 32.0837 13.5862 31.7008 11.8118 30.9352C10.0375 30.1696 8.49414 29.1305 7.18164 27.818C5.86914 26.5055 4.83008 24.9621 4.06445 23.1878C3.29883 21.4135 2.91602 19.5177 2.91602 17.5003C2.91602 15.483 3.29883 13.5871 4.06445 11.8128C4.83008 10.0385 5.86914 8.49512 7.18164 7.18262C8.49414 5.87012 10.0375 4.83105 11.8118 4.06543C13.5862 3.2998 15.482 2.91699 17.4993 2.91699C19.5167 2.91699 21.4125 3.2998 23.1868 4.06543C24.9612 4.83105 26.5046 5.87012 27.8171 7.18262C29.1296 8.49512 30.1686 10.0385 30.9342 11.8128C31.6999 13.5871 32.0827 15.483 32.0827 17.5003C32.0827 19.5177 31.6999 21.4135 30.9342 23.1878C30.1686 24.9621 29.1296 26.5055 27.8171 27.818C26.5046 29.1305 24.9612 30.1696 23.1868 30.9352C21.4125 31.7008 19.5167 32.0837 17.4993 32.0837ZM17.4993 29.167C20.7563 29.167 23.515 28.0368 25.7754 25.7764C28.0358 23.516 29.166 20.7573 29.166 17.5003C29.166 14.2434 28.0358 11.4847 25.7754 9.22428C23.515 6.96387 20.7563 5.83366 17.4993 5.83366C14.2424 5.83366 11.4837 6.96387 9.22331 9.22428C6.96289 11.4847 5.83268 14.2434 5.83268 17.5003C5.83268 20.7573 6.96289 23.516 9.22331 25.7764C11.4837 28.0368 14.2424 29.167 17.4993 29.167Z" fill="white"/>
</g>
<circle cx="22.5" cy="10.5" r="2.5" fill="#FF0000"/>
</svg>
