<svg width="25" height="24" viewBox="0 0 25 24" fill="none" xmlns="http://www.w3.org/2000/svg">
<mask id="mask0_831_3839" style="mask-type:alpha" maskUnits="userSpaceOnUse" x="0" y="0" width="25" height="24">
<rect x="0.833374" width="24" height="24" fill="#D9D9D9"/>
</mask>
<g mask="url(#mask0_831_3839)">
<path d="M6.83337 21V3H13.8334C15.5 3 16.9167 3.58333 18.0834 4.75C19.25 5.91667 19.8334 7.33333 19.8334 9C19.8334 10.6667 19.25 12.0833 18.0834 13.25C16.9167 14.4167 15.5 15 13.8334 15H10.8334V21H6.83337ZM10.8334 11H14.0334C14.5834 11 15.0542 10.8042 15.4459 10.4125C15.8375 10.0208 16.0334 9.55 16.0334 9C16.0334 8.45 15.8375 7.97917 15.4459 7.5875C15.0542 7.19583 14.5834 7 14.0334 7H10.8334V11Z" fill="#D4AF37"/>
</g>
</svg>
