<svg width="20" height="20" viewBox="0 0 20 20" fill="none" xmlns="http://www.w3.org/2000/svg">
<mask id="mask0_1337_1156" style="mask-type:alpha" maskUnits="userSpaceOnUse" x="0" y="0" width="20" height="20">
<rect width="20" height="20" fill="#D9D9D9"/>
</mask>
<g mask="url(#mask0_1337_1156)">
<path d="M10 9.16675C9.30556 9.16675 8.71528 8.92369 8.22917 8.43758C7.74306 7.95147 7.5 7.36119 7.5 6.66675C7.5 5.9723 7.74306 5.38203 8.22917 4.89591C8.71528 4.4098 9.30556 4.16675 10 4.16675C10.6944 4.16675 11.2847 4.4098 11.7708 4.89591C12.2569 5.38203 12.5 5.9723 12.5 6.66675C12.5 7.36119 12.2569 7.95147 11.7708 8.43758C11.2847 8.92369 10.6944 9.16675 10 9.16675ZM4.16667 11.6667C3.70833 11.6667 3.31597 11.5036 2.98958 11.1772C2.66319 10.8508 2.5 10.4584 2.5 10.0001V3.33341C2.5 2.87508 2.66319 2.48272 2.98958 2.15633C3.31597 1.82994 3.70833 1.66675 4.16667 1.66675H15.8333C16.2917 1.66675 16.684 1.82994 17.0104 2.15633C17.3368 2.48272 17.5 2.87508 17.5 3.33341V10.0001C17.5 10.4584 17.3368 10.8508 17.0104 11.1772C16.684 11.5036 16.2917 11.6667 15.8333 11.6667H4.16667ZM5.83333 10.0001H14.1667C14.1667 9.54175 14.3299 9.14939 14.6562 8.823C14.9826 8.49661 15.375 8.33341 15.8333 8.33341V5.00008C15.375 5.00008 14.9826 4.83689 14.6562 4.5105C14.3299 4.18411 14.1667 3.79175 14.1667 3.33341H5.83333C5.83333 3.79175 5.67014 4.18411 5.34375 4.5105C5.01736 4.83689 4.625 5.00008 4.16667 5.00008V8.33341C4.625 8.33341 5.01736 8.49661 5.34375 8.823C5.67014 9.14939 5.83333 9.54175 5.83333 10.0001ZM10 18.3334L13.3333 15.0001L12.1667 13.8334L10.8333 15.1667V12.5001H9.16667V15.1667L7.83333 13.8334L6.66667 15.0001L10 18.3334Z" fill="#D4AF37"/>
</g>
</svg>
