<svg width="26" height="26" viewBox="0 0 26 26" fill="none" xmlns="http://www.w3.org/2000/svg">
<mask id="mask0_831_3954" style="mask-type:alpha" maskUnits="userSpaceOnUse" x="0" y="0" width="26" height="26">
<rect width="26" height="26" fill="#D9D9D9"/>
</mask>
<g mask="url(#mask0_831_3954)">
<path d="M6.33749 18.525C7.25832 17.8209 8.28749 17.2656 9.42499 16.8594C10.5625 16.4531 11.7542 16.25 13 16.25C14.2458 16.25 15.4375 16.4531 16.575 16.8594C17.7125 17.2656 18.7417 17.8209 19.6625 18.525C20.2944 17.7847 20.7864 16.9452 21.1385 16.0063C21.4906 15.0674 21.6667 14.0653 21.6667 13C21.6667 10.5986 20.8226 8.55384 19.1344 6.86564C17.4462 5.17745 15.4014 4.33335 13 4.33335C10.5986 4.33335 8.55381 5.17745 6.86561 6.86564C5.17742 8.55384 4.33332 10.5986 4.33332 13C4.33332 14.0653 4.50936 15.0674 4.86145 16.0063C5.21353 16.9452 5.70555 17.7847 6.33749 18.525ZM13 14.0834C11.9347 14.0834 11.0364 13.7177 10.3052 12.9865C9.57395 12.2552 9.20832 11.357 9.20832 10.2917C9.20832 9.22641 9.57395 8.32815 10.3052 7.5969C11.0364 6.86565 11.9347 6.50002 13 6.50002C14.0653 6.50002 14.9635 6.86565 15.6948 7.5969C16.426 8.32815 16.7917 9.22641 16.7917 10.2917C16.7917 11.357 16.426 12.2552 15.6948 12.9865C14.9635 13.7177 14.0653 14.0834 13 14.0834ZM13 23.8334C11.5014 23.8334 10.093 23.549 8.77499 22.9802C7.45693 22.4115 6.31041 21.6396 5.33541 20.6646C4.36041 19.6896 3.58853 18.5431 3.01978 17.225C2.45103 15.907 2.16666 14.4986 2.16666 13C2.16666 11.5014 2.45103 10.0931 3.01978 8.77502C3.58853 7.45696 4.36041 6.31044 5.33541 5.33544C6.31041 4.36044 7.45693 3.58856 8.77499 3.01981C10.093 2.45106 11.5014 2.16669 13 2.16669C14.4986 2.16669 15.9069 2.45106 17.225 3.01981C18.543 3.58856 19.6896 4.36044 20.6646 5.33544C21.6396 6.31044 22.4114 7.45696 22.9802 8.77502C23.5489 10.0931 23.8333 11.5014 23.8333 13C23.8333 14.4986 23.5489 15.907 22.9802 17.225C22.4114 18.5431 21.6396 19.6896 20.6646 20.6646C19.6896 21.6396 18.543 22.4115 17.225 22.9802C15.9069 23.549 14.4986 23.8334 13 23.8334ZM13 21.6667C13.9569 21.6667 14.8597 21.5268 15.7083 21.2469C16.5569 20.967 17.3333 20.5653 18.0375 20.0417C17.3333 19.5181 16.5569 19.1163 15.7083 18.8365C14.8597 18.5566 13.9569 18.4167 13 18.4167C12.043 18.4167 11.1403 18.5566 10.2917 18.8365C9.44304 19.1163 8.66666 19.5181 7.96249 20.0417C8.66666 20.5653 9.44304 20.967 10.2917 21.2469C11.1403 21.5268 12.043 21.6667 13 21.6667ZM13 11.9167C13.4694 11.9167 13.8576 11.7632 14.1646 11.4563C14.4715 11.1493 14.625 10.7611 14.625 10.2917C14.625 9.82224 14.4715 9.43405 14.1646 9.1271C13.8576 8.82016 13.4694 8.66669 13 8.66669C12.5305 8.66669 12.1424 8.82016 11.8354 9.1271C11.5285 9.43405 11.375 9.82224 11.375 10.2917C11.375 10.7611 11.5285 11.1493 11.8354 11.4563C12.1424 11.7632 12.5305 11.9167 13 11.9167Z" fill="#D4AF37"/>
</g>
</svg>
