<svg width="26" height="26" viewBox="0 0 26 26" fill="none" xmlns="http://www.w3.org/2000/svg">
<mask id="mask0_1027_1300" style="mask-type:alpha" maskUnits="userSpaceOnUse" x="0" y="0" width="26" height="26">
<rect width="26" height="26" fill="#D9D9D9"/>
</mask>
<g mask="url(#mask0_1027_1300)">
<path d="M18.9587 20.5834H20.0421V17.875H22.7504V16.7917H20.0421V14.0834H18.9587V16.7917H16.2504V17.875H18.9587V20.5834ZM19.5004 22.75C18.0018 22.75 16.7244 22.2219 15.6681 21.1657C14.6119 20.1094 14.0837 18.832 14.0837 17.3334C14.0837 15.8348 14.6119 14.5573 15.6681 13.5011C16.7244 12.4448 18.0018 11.9167 19.5004 11.9167C20.999 11.9167 22.2764 12.4448 23.3327 13.5011C24.3889 14.5573 24.9171 15.8348 24.9171 17.3334C24.9171 18.832 24.3889 20.1094 23.3327 21.1657C22.2764 22.2219 20.999 22.75 19.5004 22.75ZM4.33374 20.5834V7.58337L13.0004 1.08337L21.6671 7.58337V10.075C21.324 9.96671 20.9719 9.88546 20.6108 9.83129C20.2497 9.77712 19.8796 9.75004 19.5004 9.75004V8.66671L13.0004 3.79171L6.50041 8.66671V18.4167H11.9983C12.0525 18.7959 12.1337 19.166 12.2421 19.5271C12.3504 19.8882 12.4858 20.2403 12.6483 20.5834H4.33374Z" fill="#D4AF37"/>
</g>
</svg>
