<svg width="20" height="20" viewBox="0 0 20 20" fill="none" xmlns="http://www.w3.org/2000/svg">
<mask id="mask0_1337_1842" style="mask-type:alpha" maskUnits="userSpaceOnUse" x="0" y="0" width="20" height="20">
<rect width="20" height="20" fill="#D9D9D9"/>
</mask>
<g mask="url(#mask0_1337_1842)">
<path d="M13.3346 9.16675C13.5707 9.16675 13.7687 9.08689 13.9284 8.92717C14.0881 8.76744 14.168 8.56953 14.168 8.33341C14.168 8.0973 14.0881 7.89939 13.9284 7.73966C13.7687 7.57994 13.5707 7.50008 13.3346 7.50008C13.0985 7.50008 12.9006 7.57994 12.7409 7.73966C12.5812 7.89939 12.5013 8.0973 12.5013 8.33341C12.5013 8.56953 12.5812 8.76744 12.7409 8.92717C12.9006 9.08689 13.0985 9.16675 13.3346 9.16675ZM6.66797 7.50008H10.8346V5.83341H6.66797V7.50008ZM3.7513 17.5001C3.27908 15.9167 2.8138 14.3369 2.35547 12.7605C1.89714 11.1841 1.66797 9.56953 1.66797 7.91675C1.66797 6.63897 2.11241 5.55564 3.0013 4.66675C3.89019 3.77786 4.97352 3.33341 6.2513 3.33341H10.418C10.8207 2.80564 11.3103 2.39591 11.8867 2.10425C12.4631 1.81258 13.0846 1.66675 13.7513 1.66675C14.0985 1.66675 14.3937 1.78828 14.6367 2.03133C14.8798 2.27439 15.0013 2.56953 15.0013 2.91675C15.0013 3.00008 14.9909 3.08341 14.9701 3.16675C14.9492 3.25008 14.9249 3.32647 14.8971 3.39591C14.8416 3.54869 14.7895 3.70494 14.7409 3.86466C14.6923 4.02439 14.6541 4.18758 14.6263 4.35425L16.5221 6.25008H18.3346V12.0626L15.9805 12.8334L14.5846 17.5001H10.0013V15.8334H8.33464V17.5001H3.7513ZM5.0013 15.8334H6.66797V14.1667H11.668V15.8334H13.3346L14.6263 11.5417L16.668 10.8542V7.91675H15.8346L12.918 5.00008C12.918 4.7223 12.9353 4.45494 12.9701 4.198C13.0048 3.94105 13.0569 3.68064 13.1263 3.41675C12.7235 3.52786 12.3694 3.71883 12.0638 3.98966C11.7582 4.2605 11.536 4.5973 11.3971 5.00008H6.2513C5.44575 5.00008 4.75825 5.2848 4.1888 5.85425C3.61936 6.42369 3.33464 7.11119 3.33464 7.91675C3.33464 9.27786 3.52214 10.6077 3.89714 11.9063C4.27214 13.2049 4.64019 14.514 5.0013 15.8334Z" fill="#0AF26C"/>
</g>
</svg>
