<svg width="24" height="24" viewBox="0 0 24 24" fill="none" xmlns="http://www.w3.org/2000/svg">
<path d="M15.3333 20C14.5926 20 13.963 19.7375 13.4444 19.2125C12.9259 18.6875 12.6667 18.05 12.6667 17.3C12.6667 17.21 12.6889 17 12.7333 16.67L6.48889 12.98C6.25185 13.205 5.97778 13.3814 5.66667 13.5092C5.35556 13.637 5.02222 13.7006 4.66667 13.7C3.92593 13.7 3.2963 13.4375 2.77778 12.9125C2.25926 12.3875 2 11.75 2 11C2 10.25 2.25926 9.6125 2.77778 9.0875C3.2963 8.5625 3.92593 8.3 4.66667 8.3C5.02222 8.3 5.35556 8.3639 5.66667 8.4917C5.97778 8.6195 6.25185 8.7956 6.48889 9.02L12.7333 5.33C12.7037 5.225 12.6853 5.1239 12.6782 5.0267C12.6711 4.9295 12.6673 4.8206 12.6667 4.7C12.6667 3.95 12.9259 3.3125 13.4444 2.7875C13.963 2.2625 14.5926 2 15.3333 2C16.0741 2 16.7037 2.2625 17.2222 2.7875C17.7407 3.3125 18 3.95 18 4.7C18 5.45 17.7407 6.0875 17.2222 6.6125C16.7037 7.1375 16.0741 7.4 15.3333 7.4C14.9778 7.4 14.6444 7.3361 14.3333 7.2083C14.0222 7.0805 13.7481 6.9044 13.5111 6.68L7.26667 10.37C7.2963 10.475 7.31496 10.5764 7.32267 10.6742C7.33037 10.772 7.33393 10.8806 7.33333 11C7.33274 11.1194 7.32919 11.2283 7.32267 11.3267C7.31615 11.4251 7.29748 11.5262 7.26667 11.63L13.5111 15.32C13.7481 15.095 14.0222 14.9189 14.3333 14.7917C14.6444 14.6645 14.9778 14.6006 15.3333 14.6C16.0741 14.6 16.7037 14.8625 17.2222 15.3875C17.7407 15.9125 18 16.55 18 17.3C18 18.05 17.7407 18.6875 17.2222 19.2125C16.7037 19.7375 16.0741 20 15.3333 20Z" fill="#D4AF37"/>
</svg>
