<svg width="25" height="24" viewBox="0 0 25 24" fill="none" xmlns="http://www.w3.org/2000/svg">
<mask id="mask0_831_3844" style="mask-type:alpha" maskUnits="userSpaceOnUse" x="0" y="0" width="25" height="24">
<rect x="0.444458" width="24" height="24" fill="#D4AF37"/>
</mask>
<g mask="url(#mask0_831_3844)">
<path d="M12.4445 22C10.1278 21.4167 8.21529 20.0875 6.70696 18.0125C5.19862 15.9375 4.44446 13.6333 4.44446 11.1V5L12.4445 2L20.4445 5V11.1C20.4445 13.6333 19.6903 15.9375 18.182 18.0125C16.6736 20.0875 14.7611 21.4167 12.4445 22ZM12.4445 19.9C14.1778 19.35 15.6111 18.25 16.7445 16.6C17.8778 14.95 18.4445 13.1167 18.4445 11.1V6.375L12.4445 4.125L6.44446 6.375V11.1C6.44446 13.1167 7.01112 14.95 8.14446 16.6C9.27779 18.25 10.7111 19.35 12.4445 19.9Z" fill="#D4AF37"/>
</g>
</svg>
