<svg width="26" height="26" viewBox="0 0 26 26" fill="none" xmlns="http://www.w3.org/2000/svg">
<mask id="mask0_1027_1314" style="mask-type:alpha" maskUnits="userSpaceOnUse" x="0" y="0" width="26" height="26">
<rect width="26" height="26" fill="#D9D9D9"/>
</mask>
<g mask="url(#mask0_1027_1314)">
<path d="M5.41667 22.75C4.82083 22.75 4.31076 22.5378 3.88646 22.1135C3.46215 21.6892 3.25 21.1792 3.25 20.5833V5.41667C3.25 4.82083 3.46215 4.31076 3.88646 3.88646C4.31076 3.46215 4.82083 3.25 5.41667 3.25H20.5833C21.1792 3.25 21.6892 3.46215 22.1135 3.88646C22.5378 4.31076 22.75 4.82083 22.75 5.41667V8.125H20.5833V5.41667H5.41667V20.5833H20.5833V17.875H22.75V20.5833C22.75 21.1792 22.5378 21.6892 22.1135 22.1135C21.6892 22.5378 21.1792 22.75 20.5833 22.75H5.41667ZM14.0833 18.4167C13.4875 18.4167 12.9774 18.2045 12.5531 17.7802C12.1288 17.3559 11.9167 16.8458 11.9167 16.25V9.75C11.9167 9.15417 12.1288 8.6441 12.5531 8.21979C12.9774 7.79549 13.4875 7.58333 14.0833 7.58333H21.6667C22.2625 7.58333 22.7726 7.79549 23.1969 8.21979C23.6212 8.6441 23.8333 9.15417 23.8333 9.75V16.25C23.8333 16.8458 23.6212 17.3559 23.1969 17.7802C22.7726 18.2045 22.2625 18.4167 21.6667 18.4167H14.0833ZM21.6667 16.25V9.75H14.0833V16.25H21.6667ZM17.3333 14.625C17.7847 14.625 18.1684 14.467 18.4844 14.151C18.8003 13.8351 18.9583 13.4514 18.9583 13C18.9583 12.5486 18.8003 12.1649 18.4844 11.849C18.1684 11.533 17.7847 11.375 17.3333 11.375C16.8819 11.375 16.4983 11.533 16.1823 11.849C15.8663 12.1649 15.7083 12.5486 15.7083 13C15.7083 13.4514 15.8663 13.8351 16.1823 14.151C16.4983 14.467 16.8819 14.625 17.3333 14.625Z" fill="#D4AF37"/>
</g>
</svg>
