<svg width="25" height="24" viewBox="0 0 25 24" fill="none" xmlns="http://www.w3.org/2000/svg">
<path d="M12.6111 24C9.84025 24 7.48088 23.0316 5.53296 21.0947C3.58504 19.1579 2.61108 16.8 2.61108 14.0211C2.61108 12.6947 2.86629 11.4263 3.37671 10.2158C3.88713 9.00526 4.61108 7.93684 5.54858 7.01053L12.6111 0L19.6736 7.01053C20.6111 7.93684 21.335 9.00526 21.8455 10.2158C22.3559 11.4263 22.6111 12.6947 22.6111 14.0211C22.6111 16.8 21.6371 19.1579 19.6892 21.0947C17.7413 23.0316 15.3819 24 12.6111 24ZM12.6111 21.4737C14.6944 21.4737 16.4653 20.7526 17.9236 19.3105C19.3819 17.8684 20.1111 16.1053 20.1111 14.0211C20.1111 13.0316 19.9236 12.0895 19.5486 11.1947C19.1736 10.3 18.6319 9.51579 17.9236 8.8421L12.6111 3.53684L7.29858 8.8421C6.59025 9.51579 6.04858 10.3 5.67358 11.1947C5.29858 12.0895 5.11108 13.0316 5.11108 14.0211C5.11108 16.1053 5.84025 17.8684 7.29858 19.3105C8.75692 20.7526 10.5278 21.4737 12.6111 21.4737Z" fill="#D4AF37"/>
</svg>
